<svg width="20" height="17" viewBox="0 0 20 17" fill="none" xmlns="http://www.w3.org/2000/svg">
<path d="M13.104 9.27083L12.1873 8.35417C12.5484 7.36806 12.3609 6.54861 11.6248 5.89583C10.8887 5.24306 10.0901 5.07639 9.229 5.39583L8.31234 4.47917C8.54845 4.32639 8.81234 4.21528 9.104 4.14583C9.39567 4.07639 9.69428 4.04167 9.99984 4.04167C10.9859 4.04167 11.8228 4.38542 12.5103 5.07292C13.1978 5.76042 13.5415 6.59722 13.5415 7.58333C13.5415 7.88889 13.5033 8.19097 13.4269 8.48958C13.3505 8.78819 13.2429 9.04861 13.104 9.27083ZM15.7915 11.9583L14.9582 11.125C15.6387 10.625 16.2325 10.066 16.7394 9.44792C17.2464 8.82986 17.6179 8.20833 17.854 7.58333C17.1596 6.04167 16.1179 4.82292 14.729 3.92708C13.3401 3.03125 11.8332 2.58333 10.2082 2.58333C9.62484 2.58333 9.02761 2.63889 8.4165 2.75C7.80539 2.86111 7.32623 2.99306 6.979 3.14583L6.02067 2.16667C6.50678 1.94444 7.12831 1.75 7.88525 1.58333C8.6422 1.41667 9.38178 1.33333 10.104 1.33333C11.979 1.33333 13.7082 1.84722 15.2915 2.875C16.8748 3.90278 18.0832 5.28472 18.9165 7.02083C18.9582 7.09028 18.9859 7.17361 18.9998 7.27083C19.0137 7.36806 19.0207 7.47222 19.0207 7.58333C19.0207 7.69445 19.0137 7.80208 18.9998 7.90625C18.9859 8.01042 18.9582 8.09722 18.9165 8.16667C18.5554 8.93056 18.1109 9.63195 17.5832 10.2708C17.0554 10.9097 16.4582 11.4722 15.7915 11.9583ZM16.5415 16.2083L13.4998 13.2292C13.0137 13.4236 12.4651 13.5729 11.854 13.6771C11.2429 13.7812 10.6248 13.8333 9.99984 13.8333C8.08317 13.8333 6.32623 13.3194 4.729 12.2917C3.13178 11.2639 1.9165 9.88195 1.08317 8.14583C1.0415 8.0625 1.01373 7.9757 0.999837 7.88542C0.985948 7.79514 0.979004 7.69445 0.979004 7.58333C0.979004 7.47222 0.989421 7.36458 1.01025 7.26042C1.03109 7.15625 1.05539 7.06945 1.08317 7C1.37484 6.375 1.74637 5.76736 2.19775 5.17708C2.64914 4.58681 3.18039 4.02778 3.7915 3.5L1.604 1.3125C1.479 1.1875 1.4165 1.04167 1.4165 0.875C1.4165 0.708333 1.479 0.5625 1.604 0.4375C1.729 0.3125 1.87831 0.25 2.05192 0.25C2.22553 0.25 2.37484 0.3125 2.49984 0.4375L17.4165 15.3542C17.5276 15.4653 17.5832 15.6007 17.5832 15.7604C17.5832 15.9201 17.5276 16.0625 17.4165 16.1875C17.3054 16.3264 17.163 16.3958 16.9894 16.3958C16.8158 16.3958 16.6665 16.3333 16.5415 16.2083ZM4.64567 4.375C4.13178 4.75 3.63525 5.24306 3.15609 5.85417C2.67692 6.46528 2.33317 7.04167 2.12484 7.58333C2.83317 9.125 3.89914 10.3438 5.32275 11.2396C6.74636 12.1354 8.36095 12.5833 10.1665 12.5833C10.6248 12.5833 11.0762 12.5556 11.5207 12.5C11.9651 12.4444 12.2984 12.3611 12.5207 12.25L11.1873 10.9167C11.0346 10.9861 10.8471 11.0382 10.6248 11.0729C10.4026 11.1076 10.1943 11.125 9.99984 11.125C9.02761 11.125 8.19428 10.7847 7.49984 10.1042C6.80539 9.42361 6.45817 8.58333 6.45817 7.58333C6.45817 7.375 6.47553 7.16667 6.51025 6.95833C6.54498 6.75 6.59706 6.5625 6.6665 6.39583L4.64567 4.375Z" fill="#231F20" fill-opacity="0.5"/>
</svg>
