<svg xmlns="http://www.w3.org/2000/svg" version="1.1" xmlns:xlink="http://www.w3.org/1999/xlink" xmlns:svgjs="http://svgjs.dev/svgjs" viewBox="0 0 1422 800" opacity="0.97"><g stroke-width="2.5" stroke="url(#oooscillate-grad)" fill="none" stroke-linecap="round"><path d="M 0 1332 Q 355.5 205 711 400 Q 1066.5 595 1422 1332" stroke-dasharray="11 51" opacity="0.05"></path><path d="M 0 1320 Q 355.5 205 711 400 Q 1066.5 595 1422 1320" stroke-dasharray="63 26" opacity="0.06"></path><path d="M 0 1308 Q 355.5 205 711 400 Q 1066.5 595 1422 1308" stroke-dasharray="9 38" opacity="0.07"></path><path d="M 0 1296 Q 355.5 205 711 400 Q 1066.5 595 1422 1296" stroke-dasharray="56 24" opacity="0.08"></path><path d="M 0 1284 Q 355.5 205 711 400 Q 1066.5 595 1422 1284" stroke-dasharray="22 48" opacity="0.08"></path><path d="M 0 1272 Q 355.5 205 711 400 Q 1066.5 595 1422 1272" stroke-dasharray="6 68" opacity="0.09"></path><path d="M 0 1260 Q 355.5 205 711 400 Q 1066.5 595 1422 1260" stroke-dasharray="4 5" opacity="0.10"></path><path d="M 0 1248 Q 355.5 205 711 400 Q 1066.5 595 1422 1248" stroke-dasharray="74 21" opacity="0.11"></path><path d="M 0 1236 Q 355.5 205 711 400 Q 1066.5 595 1422 1236" stroke-dasharray="13 24" opacity="0.12"></path><path d="M 0 1224 Q 355.5 205 711 400 Q 1066.5 595 1422 1224" stroke-dasharray="6 54" opacity="0.13"></path><path d="M 0 1212 Q 355.5 205 711 400 Q 1066.5 595 1422 1212" stroke-dasharray="69 70" opacity="0.14"></path><path d="M 0 1200 Q 355.5 205 711 400 Q 1066.5 595 1422 1200" stroke-dasharray="10 20" opacity="0.15"></path><path d="M 0 1188 Q 355.5 205 711 400 Q 1066.5 595 1422 1188" stroke-dasharray="16 25" opacity="0.15"></path><path d="M 0 1176 Q 355.5 205 711 400 Q 1066.5 595 1422 1176" stroke-dasharray="52 22" opacity="0.16"></path><path d="M 0 1164 Q 355.5 205 711 400 Q 1066.5 595 1422 1164" stroke-dasharray="65 47" opacity="0.17"></path><path d="M 0 1152 Q 355.5 205 711 400 Q 1066.5 595 1422 1152" stroke-dasharray="64 44" opacity="0.18"></path><path d="M 0 1140 Q 355.5 205 711 400 Q 1066.5 595 1422 1140" stroke-dasharray="1 34" opacity="0.19"></path><path d="M 0 1128 Q 355.5 205 711 400 Q 1066.5 595 1422 1128" stroke-dasharray="57 18" opacity="0.20"></path><path d="M 0 1116 Q 355.5 205 711 400 Q 1066.5 595 1422 1116" stroke-dasharray="70 26" opacity="0.21"></path><path d="M 0 1104 Q 355.5 205 711 400 Q 1066.5 595 1422 1104" stroke-dasharray="56 65" opacity="0.21"></path><path d="M 0 1092 Q 355.5 205 711 400 Q 1066.5 595 1422 1092" stroke-dasharray="30 46" opacity="0.22"></path><path d="M 0 1080 Q 355.5 205 711 400 Q 1066.5 595 1422 1080" stroke-dasharray="19 72" opacity="0.23"></path><path d="M 0 1068 Q 355.5 205 711 400 Q 1066.5 595 1422 1068" stroke-dasharray="10 65" opacity="0.24"></path><path d="M 0 1056 Q 355.5 205 711 400 Q 1066.5 595 1422 1056" stroke-dasharray="6 2" opacity="0.25"></path><path d="M 0 1044 Q 355.5 205 711 400 Q 1066.5 595 1422 1044" stroke-dasharray="25 68" opacity="0.26"></path><path d="M 0 1032 Q 355.5 205 711 400 Q 1066.5 595 1422 1032" stroke-dasharray="53 26" opacity="0.27"></path><path d="M 0 1020 Q 355.5 205 711 400 Q 1066.5 595 1422 1020" stroke-dasharray="61 51" opacity="0.27"></path><path d="M 0 1008 Q 355.5 205 711 400 Q 1066.5 595 1422 1008" stroke-dasharray="70 41" opacity="0.28"></path><path d="M 0 996 Q 355.5 205 711 400 Q 1066.5 595 1422 996" stroke-dasharray="71 32" opacity="0.29"></path><path d="M 0 984 Q 355.5 205 711 400 Q 1066.5 595 1422 984" stroke-dasharray="62 20" opacity="0.30"></path><path d="M 0 972 Q 355.5 205 711 400 Q 1066.5 595 1422 972" stroke-dasharray="47 34" opacity="0.31"></path><path d="M 0 960 Q 355.5 205 711 400 Q 1066.5 595 1422 960" stroke-dasharray="69 68" opacity="0.32"></path><path d="M 0 948 Q 355.5 205 711 400 Q 1066.5 595 1422 948" stroke-dasharray="14 20" opacity="0.33"></path><path d="M 0 936 Q 355.5 205 711 400 Q 1066.5 595 1422 936" stroke-dasharray="17 72" opacity="0.33"></path><path d="M 0 924 Q 355.5 205 711 400 Q 1066.5 595 1422 924" stroke-dasharray="47 49" opacity="0.34"></path><path d="M 0 912 Q 355.5 205 711 400 Q 1066.5 595 1422 912" stroke-dasharray="10 16" opacity="0.35"></path><path d="M 0 900 Q 355.5 205 711 400 Q 1066.5 595 1422 900" stroke-dasharray="48 75" opacity="0.36"></path><path d="M 0 888 Q 355.5 205 711 400 Q 1066.5 595 1422 888" stroke-dasharray="25 40" opacity="0.37"></path><path d="M 0 876 Q 355.5 205 711 400 Q 1066.5 595 1422 876" stroke-dasharray="32 51" opacity="0.38"></path><path d="M 0 864 Q 355.5 205 711 400 Q 1066.5 595 1422 864" stroke-dasharray="63 24" opacity="0.39"></path><path d="M 0 852 Q 355.5 205 711 400 Q 1066.5 595 1422 852" stroke-dasharray="35 0" opacity="0.40"></path><path d="M 0 840 Q 355.5 205 711 400 Q 1066.5 595 1422 840" stroke-dasharray="37 70" opacity="0.40"></path><path d="M 0 828 Q 355.5 205 711 400 Q 1066.5 595 1422 828" stroke-dasharray="65 8" opacity="0.41"></path><path d="M 0 816 Q 355.5 205 711 400 Q 1066.5 595 1422 816" stroke-dasharray="52 34" opacity="0.42"></path><path d="M 0 804 Q 355.5 205 711 400 Q 1066.5 595 1422 804" stroke-dasharray="71 42" opacity="0.43"></path><path d="M 0 792 Q 355.5 205 711 400 Q 1066.5 595 1422 792" stroke-dasharray="45 15" opacity="0.44"></path><path d="M 0 780 Q 355.5 205 711 400 Q 1066.5 595 1422 780" stroke-dasharray="68 9" opacity="0.45"></path><path d="M 0 768 Q 355.5 205 711 400 Q 1066.5 595 1422 768" stroke-dasharray="51 18" opacity="0.46"></path><path d="M 0 756 Q 355.5 205 711 400 Q 1066.5 595 1422 756" stroke-dasharray="62 41" opacity="0.46"></path><path d="M 0 744 Q 355.5 205 711 400 Q 1066.5 595 1422 744" stroke-dasharray="62 11" opacity="0.47"></path><path d="M 0 732 Q 355.5 205 711 400 Q 1066.5 595 1422 732" stroke-dasharray="3 47" opacity="0.48"></path><path d="M 0 720 Q 355.5 205 711 400 Q 1066.5 595 1422 720" stroke-dasharray="8 52" opacity="0.49"></path><path d="M 0 708 Q 355.5 205 711 400 Q 1066.5 595 1422 708" stroke-dasharray="9 58" opacity="0.50"></path><path d="M 0 696 Q 355.5 205 711 400 Q 1066.5 595 1422 696" stroke-dasharray="70 22" opacity="0.51"></path><path d="M 0 684 Q 355.5 205 711 400 Q 1066.5 595 1422 684" stroke-dasharray="49 51" opacity="0.52"></path><path d="M 0 672 Q 355.5 205 711 400 Q 1066.5 595 1422 672" stroke-dasharray="52 48" opacity="0.53"></path><path d="M 0 660 Q 355.5 205 711 400 Q 1066.5 595 1422 660" stroke-dasharray="54 60" opacity="0.53"></path><path d="M 0 648 Q 355.5 205 711 400 Q 1066.5 595 1422 648" stroke-dasharray="62 44" opacity="0.54"></path><path d="M 0 636 Q 355.5 205 711 400 Q 1066.5 595 1422 636" stroke-dasharray="36 25" opacity="0.55"></path><path d="M 0 624 Q 355.5 205 711 400 Q 1066.5 595 1422 624" stroke-dasharray="35 40" opacity="0.56"></path><path d="M 0 612 Q 355.5 205 711 400 Q 1066.5 595 1422 612" stroke-dasharray="31 50" opacity="0.57"></path><path d="M 0 600 Q 355.5 205 711 400 Q 1066.5 595 1422 600" stroke-dasharray="72 51" opacity="0.58"></path><path d="M 0 588 Q 355.5 205 711 400 Q 1066.5 595 1422 588" stroke-dasharray="12 66" opacity="0.59"></path><path d="M 0 576 Q 355.5 205 711 400 Q 1066.5 595 1422 576" stroke-dasharray="74 7" opacity="0.59"></path><path d="M 0 564 Q 355.5 205 711 400 Q 1066.5 595 1422 564" stroke-dasharray="36 31" opacity="0.60"></path><path d="M 0 552 Q 355.5 205 711 400 Q 1066.5 595 1422 552" stroke-dasharray="43 60" opacity="0.61"></path><path d="M 0 540 Q 355.5 205 711 400 Q 1066.5 595 1422 540" stroke-dasharray="36 5" opacity="0.62"></path><path d="M 0 528 Q 355.5 205 711 400 Q 1066.5 595 1422 528" stroke-dasharray="53 16" opacity="0.63"></path><path d="M 0 516 Q 355.5 205 711 400 Q 1066.5 595 1422 516" stroke-dasharray="65 57" opacity="0.64"></path><path d="M 0 504 Q 355.5 205 711 400 Q 1066.5 595 1422 504" stroke-dasharray="28 72" opacity="0.65"></path><path d="M 0 492 Q 355.5 205 711 400 Q 1066.5 595 1422 492" stroke-dasharray="39 8" opacity="0.65"></path><path d="M 0 480 Q 355.5 205 711 400 Q 1066.5 595 1422 480" stroke-dasharray="9 70" opacity="0.66"></path><path d="M 0 468 Q 355.5 205 711 400 Q 1066.5 595 1422 468" stroke-dasharray="8 1" opacity="0.67"></path><path d="M 0 456 Q 355.5 205 711 400 Q 1066.5 595 1422 456" stroke-dasharray="43 51" opacity="0.68"></path><path d="M 0 444 Q 355.5 205 711 400 Q 1066.5 595 1422 444" stroke-dasharray="26 68" opacity="0.69"></path><path d="M 0 432 Q 355.5 205 711 400 Q 1066.5 595 1422 432" stroke-dasharray="53 75" opacity="0.70"></path><path d="M 0 420 Q 355.5 205 711 400 Q 1066.5 595 1422 420" stroke-dasharray="44 70" opacity="0.71"></path><path d="M 0 408 Q 355.5 205 711 400 Q 1066.5 595 1422 408" stroke-dasharray="66 22" opacity="0.71"></path><path d="M 0 396 Q 355.5 205 711 400 Q 1066.5 595 1422 396" stroke-dasharray="19 46" opacity="0.72"></path><path d="M 0 384 Q 355.5 205 711 400 Q 1066.5 595 1422 384" stroke-dasharray="47 1" opacity="0.73"></path><path d="M 0 372 Q 355.5 205 711 400 Q 1066.5 595 1422 372" stroke-dasharray="45 51" opacity="0.74"></path><path d="M 0 360 Q 355.5 205 711 400 Q 1066.5 595 1422 360" stroke-dasharray="50 45" opacity="0.75"></path><path d="M 0 348 Q 355.5 205 711 400 Q 1066.5 595 1422 348" stroke-dasharray="7 27" opacity="0.76"></path><path d="M 0 336 Q 355.5 205 711 400 Q 1066.5 595 1422 336" stroke-dasharray="27 5" opacity="0.77"></path><path d="M 0 324 Q 355.5 205 711 400 Q 1066.5 595 1422 324" stroke-dasharray="66 16" opacity="0.78"></path><path d="M 0 312 Q 355.5 205 711 400 Q 1066.5 595 1422 312" stroke-dasharray="65 66" opacity="0.78"></path><path d="M 0 300 Q 355.5 205 711 400 Q 1066.5 595 1422 300" stroke-dasharray="8 12" opacity="0.79"></path><path d="M 0 288 Q 355.5 205 711 400 Q 1066.5 595 1422 288" stroke-dasharray="35 43" opacity="0.80"></path><path d="M 0 276 Q 355.5 205 711 400 Q 1066.5 595 1422 276" stroke-dasharray="38 53" opacity="0.81"></path><path d="M 0 264 Q 355.5 205 711 400 Q 1066.5 595 1422 264" stroke-dasharray="63 50" opacity="0.82"></path><path d="M 0 252 Q 355.5 205 711 400 Q 1066.5 595 1422 252" stroke-dasharray="22 24" opacity="0.83"></path><path d="M 0 240 Q 355.5 205 711 400 Q 1066.5 595 1422 240" stroke-dasharray="3 44" opacity="0.84"></path><path d="M 0 228 Q 355.5 205 711 400 Q 1066.5 595 1422 228" stroke-dasharray="14 67" opacity="0.84"></path><path d="M 0 216 Q 355.5 205 711 400 Q 1066.5 595 1422 216" stroke-dasharray="33 14" opacity="0.85"></path><path d="M 0 204 Q 355.5 205 711 400 Q 1066.5 595 1422 204" stroke-dasharray="72 5" opacity="0.86"></path><path d="M 0 192 Q 355.5 205 711 400 Q 1066.5 595 1422 192" stroke-dasharray="33 5" opacity="0.87"></path><path d="M 0 180 Q 355.5 205 711 400 Q 1066.5 595 1422 180" stroke-dasharray="70 1" opacity="0.88"></path><path d="M 0 168 Q 355.5 205 711 400 Q 1066.5 595 1422 168" stroke-dasharray="12 21" opacity="0.89"></path><path d="M 0 156 Q 355.5 205 711 400 Q 1066.5 595 1422 156" stroke-dasharray="62 16" opacity="0.90"></path><path d="M 0 144 Q 355.5 205 711 400 Q 1066.5 595 1422 144" stroke-dasharray="40 72" opacity="0.91"></path><path d="M 0 132 Q 355.5 205 711 400 Q 1066.5 595 1422 132" stroke-dasharray="72 33" opacity="0.91"></path><path d="M 0 120 Q 355.5 205 711 400 Q 1066.5 595 1422 120" stroke-dasharray="34 70" opacity="0.92"></path><path d="M 0 108 Q 355.5 205 711 400 Q 1066.5 595 1422 108" stroke-dasharray="27 7" opacity="0.93"></path><path d="M 0 96 Q 355.5 205 711 400 Q 1066.5 595 1422 96" stroke-dasharray="34 43" opacity="0.94"></path><path d="M 0 84 Q 355.5 205 711 400 Q 1066.5 595 1422 84" stroke-dasharray="65 41" opacity="0.95"></path><path d="M 0 72 Q 355.5 205 711 400 Q 1066.5 595 1422 72" stroke-dasharray="19 57" opacity="0.96"></path><path d="M 0 60 Q 355.5 205 711 400 Q 1066.5 595 1422 60" stroke-dasharray="58 15" opacity="0.97"></path><path d="M 0 48 Q 355.5 205 711 400 Q 1066.5 595 1422 48" stroke-dasharray="1 31" opacity="0.97"></path><path d="M 0 36 Q 355.5 205 711 400 Q 1066.5 595 1422 36" stroke-dasharray="11 67" opacity="0.98"></path><path d="M 0 24 Q 355.5 205 711 400 Q 1066.5 595 1422 24" stroke-dasharray="46 39" opacity="0.99"></path></g><defs><linearGradient x1="50%" y1="0%" x2="50%" y2="100%" id="oooscillate-grad"><stop stop-color="hsl(50, 98%, 60%)" stop-opacity="1" offset="0%"></stop><stop stop-color="hsl(50, 98%, 80%)" stop-opacity="1" offset="100%"></stop></linearGradient></defs></svg>